<?xml version="1.0" encoding="UTF-8"?>
<svg width="492px" height="320" viewBox="0 0 380 320" version="1.1" xmlns="http://www.w3.org/2000/svg" xmlns:xlink="http://www.w3.org/1999/xlink">
    <!-- Generator: Sketch 53 (72520) - https://sketchapp.com -->
    <title>Netlify</title>
    <desc>Created with Sketch.</desc>
    <defs>
        <radialGradient cx="50%" cy="-50%" fx="50%" fy="-50%" r="100.253798%" gradientTransform="translate(0.500000,-0.500000),scale(1.000000,0.997467),rotate(90.000000),translate(-0.500000,0.500000)" id="radialGradient-1">
            <stop stop-color="#20C6B7" offset="0%"></stop>
            <stop stop-color="#4D9ABF" offset="100%"></stop>
        </radialGradient>
    </defs>
    <g id="Netlify" stroke="none" stroke-width="1" fill="none" fill-rule="evenodd">
        <g id="Netlify_logo" transform="translate(46.000000, 164.000000)" fill-rule="nonzero">
            <path d="M145.22449,35.36505 L145.559184,41.3546 C149.376871,36.7221 154.389116,34.40585 160.593197,34.40585 C171.344218,34.40585 176.816327,40.58615 177.006803,52.94675 L177.006803,87.19455 L165.414966,87.19455 L165.414966,53.6171 C165.414966,50.328025 164.707483,47.8946 163.292517,46.311375 C161.877551,44.730875 159.561905,43.940625 156.348299,43.940625 C151.670748,43.940625 148.185034,46.066125 145.89932,50.311675 L145.89932,87.19455 L134.302041,87.19455 L134.302041,35.36505 L145.229932,35.36505 L145.22449,35.36505 Z M211.559184,88.15375 C204.212245,88.15375 198.253061,85.83205 193.689796,81.185925 C189.12381,76.5398 186.840816,70.351325 186.840816,62.623225 L186.840816,61.18715 C186.840816,56.0151 187.834014,51.390775 189.823129,47.319625 C191.809524,43.248475 194.604082,40.0793 198.198639,37.809375 C201.793197,35.5449 205.801361,34.4113 210.22585,34.4113 C217.254422,34.4113 222.688435,36.66215 226.519728,41.16385 C230.356463,45.668275 232.272109,52.0366 232.272109,60.277 L232.272109,64.972175 L198.530612,64.972175 C198.884354,69.250425 200.304762,72.634875 202.802721,75.125525 C205.30068,77.616175 208.443537,78.8615 212.228571,78.8615 C217.540136,78.8615 221.866667,76.70875 225.208163,72.395075 L231.458503,78.384625 C229.390476,81.480225 226.631293,83.883675 223.180952,85.59225 C219.727891,87.300825 215.855782,88.15375 211.561905,88.15375 L211.559184,88.15375 Z M210.176871,43.7526 C206.993197,43.7526 204.427211,44.86985 202.470748,47.10435 C200.511565,49.33885 199.265306,52.453525 198.72381,56.44565 L220.819048,56.44565 L220.819048,55.581825 C220.563265,51.685075 219.529252,48.742075 217.717007,46.74465 C215.902041,44.74995 213.390476,43.7526 210.176871,43.7526 L210.176871,43.7526 Z M255.795918,22.7701 L255.795918,35.367775 L264.911565,35.367775 L264.911565,43.989675 L255.795918,43.989675 L255.795918,72.921 C255.795918,74.89935 256.187755,76.32725 256.965986,77.207425 C257.744218,78.084875 259.137415,78.5236 261.142857,78.5236 C262.508214,78.5197812 263.86861,78.3588591 265.197279,78.044 L265.197279,87.050125 C262.557823,87.785875 260.013605,88.151025 257.561905,88.151025 C248.655782,88.151025 244.201361,83.218775 244.201361,73.35155 L244.201361,43.98695 L235.70068,43.98695 L235.70068,35.36505 L244.195918,35.36505 L244.195918,22.767375 L255.790476,22.767375 L255.795918,22.7701 Z M286.10068,87.197275 L274.503401,87.197275 L274.503401,13.622275 L286.10068,13.622275 L286.10068,87.197275 Z M311.058503,87.197275 L299.461224,87.197275 L299.461224,35.367775 L311.058503,35.367775 L311.058503,87.197275 Z M298.745578,21.906275 C298.745578,20.1214 299.308844,18.636275 300.438095,17.453625 C301.570068,16.2737 303.183673,15.682375 305.281633,15.682375 C307.382313,15.682375 309.004082,16.2737 310.152381,17.453625 C311.295238,18.636275 311.866667,20.1214 311.866667,21.909 C311.866667,23.6639 311.295238,25.1245 310.152381,26.2908 C309.004082,27.4571 307.382313,28.04025 305.281633,28.04025 C303.183673,28.04025 301.570068,27.4571 300.438095,26.2908 C299.308844,25.127225 298.745578,23.6639 298.745578,21.909 L298.745578,21.906275 Z M327.760544,87.197275 L327.760544,43.98695 L319.885714,43.98695 L319.885714,35.36505 L327.760544,35.36505 L327.760544,30.62355 C327.760544,24.8738 329.34966,20.4375 332.530612,17.306475 C335.714286,14.178175 340.165986,12.614025 345.891156,12.614025 C347.929252,12.614025 350.092517,12.90015 352.383673,13.475125 L352.097959,22.576625 C350.634584,22.3046281 349.14812,22.1768512 347.659864,22.195125 C342.122449,22.195125 339.355102,25.050925 339.355102,30.767975 L339.355102,35.36505 L349.853061,35.36505 L349.853061,43.98695 L339.355102,43.98695 L339.355102,87.19455 L327.760544,87.19455 L327.760544,87.197275 Z M376.386395,70.52845 L386.884354,35.367775 L399.243537,35.367775 L378.726531,95.05345 C375.57551,103.770725 370.231293,108.130725 362.691156,108.130725 C361.004082,108.130725 359.142857,107.841875 357.107483,107.2669 L357.107483,98.260775 L359.303401,98.4052 C362.228571,98.4052 364.432653,97.8711 365.912925,96.800175 C367.390476,95.731975 368.560544,93.9362 369.420408,91.41285 L371.088435,86.957475 L352.955102,35.367775 L365.458503,35.367775 L376.386395,70.52845 Z" id="Shape" fill="#FEFEFE"></path>
            <path d="M75.8829932,38.517875 L75.844898,38.501525 C75.8231293,38.49335 75.8013605,38.485175 75.7823129,38.4661 C75.7190352,38.3980347 75.6908882,38.3044123 75.7061224,38.212675 L77.8095238,25.334325 L87.6734694,35.215175 L77.414966,39.586075 C77.386457,39.5975879 77.3559012,39.6031515 77.3251701,39.602425 L77.2843537,39.602425 C77.2707483,39.59425 77.2571429,39.58335 77.229932,39.5561 C76.848161,39.1304154 76.391619,38.7785113 75.8829932,38.517875 Z M90.1904762,37.733075 L100.737415,48.295175 C102.927891,50.491525 104.02449,51.586975 104.42449,52.856825 C104.484354,53.04485 104.533333,53.232875 104.571429,53.42635 L79.3659864,42.736175 C79.3524418,42.730574 79.3388355,42.7251236 79.3251701,42.719825 C79.2244898,42.67895 79.107483,42.632625 79.107483,42.529075 C79.107483,42.425525 79.2272109,42.376475 79.3278912,42.3356 L79.3605442,42.321975 L90.1904762,37.733075 Z M104.141497,56.81625 C103.597279,57.84085 102.536054,58.9036 100.740136,60.704825 L88.8489796,72.61035 L73.4693878,69.403025 L73.3877551,69.386675 C73.2517007,69.364875 73.107483,69.34035 73.107483,69.217725 C72.9894119,67.9334076 72.3438636,66.7559325 71.3251701,65.9668 C71.262585,65.904125 71.2789116,65.806025 71.2979592,65.7161 C71.2979592,65.702475 71.2979592,65.68885 71.3034014,65.67795 L74.1959184,47.8946 L74.2068027,47.83465 C74.2231293,47.6984 74.247619,47.54035 74.370068,47.54035 C75.6222144,47.3843583 76.7594107,46.731494 77.5265306,45.728225 C77.5510204,45.700975 77.5673469,45.671 77.6,45.65465 C77.6870748,45.613775 77.7904762,45.65465 77.8802721,45.6928 L104.138776,56.81625 L104.141497,56.81625 Z M86.1142857,75.348975 L66.5605442,94.930825 L69.907483,74.329825 L69.9129252,74.302575 C69.9156463,74.275325 69.9210884,74.248075 69.9292517,74.22355 C69.9564626,74.15815 70.0272109,74.1309 70.0952381,74.10365 L70.1278912,74.090025 C70.8607231,73.7769079 71.5088738,73.2940653 72.0190476,72.6812 C72.0843537,72.6049 72.1632653,72.531325 72.2639456,72.5177 C72.2900765,72.5134282 72.3167262,72.5134282 72.3428571,72.5177 L86.1115646,75.3517 L86.1142857,75.348975 Z M62.4217687,99.07555 L60.2176871,101.2828 L35.8503401,66.01585 C35.8415284,66.0029503 35.8324563,65.9902311 35.8231293,65.9777 C35.785034,65.925925 35.7442177,65.87415 35.752381,65.8142 C35.752381,65.7706 35.7823129,65.73245 35.8122449,65.69975 L35.8394558,65.664325 C35.9129252,65.555325 35.9755102,65.446325 36.0435374,65.32915 L36.0979592,65.233775 L36.1061224,65.2256 C36.1442177,65.1602 36.1795918,65.097525 36.244898,65.0621 C36.3020408,65.03485 36.3809524,65.04575 36.4435374,65.059375 L63.4394558,70.634725 C63.5149395,70.6464801 63.5861462,70.6774433 63.6462585,70.72465 C63.6816327,70.760075 63.6897959,70.798225 63.6979592,70.841825 C64.0796753,72.2881468 65.1145123,73.4726618 66.4952381,74.0437 C66.5714286,74.08185 66.5387755,74.166325 66.5034014,74.25625 C66.4857523,74.2956619 66.472079,74.3367408 66.462585,74.378875 C66.122449,76.449875 63.2054422,94.265925 62.4217687,99.07555 Z M57.8176871,103.683525 C56.1931973,105.294 55.2353741,106.146925 54.152381,106.490275 C53.0845608,106.828421 51.9385684,106.828421 50.8707483,106.490275 C49.6027211,106.086975 48.5061224,104.991525 46.3156463,102.795175 L21.844898,78.28925 L28.2367347,68.362075 C28.2666667,68.313025 28.2965986,68.269425 28.3455782,68.234 C28.4136054,68.18495 28.5115646,68.20675 28.5931973,68.234 C30.0603006,68.6772522 31.6354926,68.5973201 33.0503401,68.007825 C33.1238095,67.980575 33.1972789,67.9615 33.2544218,68.013275 C33.2829966,68.0393952 33.3085534,68.068645 33.3306122,68.100475 L57.8176871,103.68625 L57.8176871,103.683525 Z M19.4857143,75.926675 L13.8721088,70.305 L24.9578231,65.56895 C24.9861591,65.5565762 25.016707,65.550087 25.047619,65.549875 C25.1401361,65.549875 25.1945578,65.642525 25.2435374,65.727 C25.3549442,65.8986434 25.4729465,66.065902 25.5972789,66.2284 L25.6326531,66.272 C25.6653061,66.318325 25.6435374,66.36465 25.6108844,66.40825 L19.4884354,75.926675 L19.4857143,75.926675 Z M11.3877551,67.817075 L4.28571429,60.704825 C3.07755102,59.494925 2.20136054,58.617475 1.59183673,57.86265 L23.1863946,62.348 C23.2135211,62.3530347 23.2407364,62.3575771 23.2680272,62.361625 C23.4013605,62.383425 23.5482993,62.40795 23.5482993,62.5333 C23.5482993,62.66955 23.3877551,62.732225 23.2517007,62.784 L23.1891156,62.81125 L11.3877551,67.817075 Z M0.351020408,54.2057 C0.375630357,53.7475441 0.457913896,53.2943341 0.595918367,52.856825 C0.998639456,51.586975 2.09251701,50.491525 4.28571429,48.295175 L13.3741497,39.193675 C17.5587296,45.2755472 21.7546553,51.3495828 25.9619048,57.41575 C26.0353741,57.51385 26.1170068,57.62285 26.0326531,57.7046 C25.6353741,58.143325 25.2380952,58.622925 24.9578231,59.1434 C24.9274178,59.2103014 24.8806162,59.2684188 24.8217687,59.31235 C24.7863946,59.33415 24.7482993,59.325975 24.707483,59.3178 L24.7020408,59.3178 L0.351020408,54.202975 L0.351020408,54.2057 Z M15.8068027,36.757525 L28.0217687,24.51955 C29.1727891,25.023675 33.355102,26.7922 37.0911565,28.3727 C39.9210884,29.5717 42.5006803,30.6617 43.3115646,31.01595 C43.3931973,31.04865 43.4666667,31.08135 43.5020408,31.1631 C43.5238095,31.21215 43.5129252,31.274825 43.5020408,31.3266 C43.1090907,33.1210675 43.6439246,34.9931169 44.9251701,36.3079 C45.0068027,36.38965 44.9251701,36.506825 44.8544218,36.60765 L44.8163265,36.664875 L32.4081633,55.91155 C32.3755102,55.96605 32.3455782,56.012375 32.2911565,56.0478 C32.2258503,56.088675 32.1333333,56.0696 32.0571429,56.050525 C31.5745441,55.9239048 31.0784253,55.8561966 30.5795918,55.848875 C30.1333333,55.848875 29.6489796,55.930625 29.1591837,56.02055 L29.1564626,56.02055 C29.1020408,56.028725 29.0530612,56.039625 29.0095238,56.006925 C28.9614378,55.967571 28.9200791,55.9206305 28.8870748,55.86795 L15.8040816,36.757525 L15.8068027,36.757525 Z M30.4952381,22.047975 L46.3156463,6.204825 C48.5061224,4.0112 49.6027211,2.913025 50.8707483,2.51245 C51.9385684,2.17430422 53.0845608,2.17430422 54.152381,2.51245 C55.4204082,2.913025 56.5170068,4.0112 58.707483,6.204825 L62.1360544,9.638325 L50.8843537,27.089225 C50.8565189,27.1400274 50.8185432,27.1845506 50.7727891,27.220025 C50.7047619,27.26635 50.6095238,27.247275 50.5278912,27.220025 C48.7269258,26.6726981 46.7722897,27.0499143 45.3034014,28.228275 C45.229932,28.304575 45.1210884,28.260975 45.0285714,28.2201 C43.5591837,27.579725 32.1306122,22.74285 30.4952381,22.047975 L30.4952381,22.047975 Z M64.5251701,12.030875 L74.9142857,22.434925 L72.4108844,37.961975 L72.4108844,38.00285 C72.4086492,38.0382369 72.4013171,38.0731143 72.3891156,38.1064 C72.3619048,38.1609 72.307483,38.1718 72.2530612,38.18815 C71.7178207,38.3505096 71.2137153,38.6020034 70.7619048,38.932075 C70.7424807,38.9459375 70.724274,38.9614354 70.707483,38.9784 C70.677551,39.0111 70.647619,39.041075 70.5986395,39.046525 C70.5587754,39.0477584 70.5190478,39.0412818 70.4816327,39.02745 L54.6503401,32.29125 L54.6204082,32.277625 C54.5197279,32.23675 54.4,32.1877 54.4,32.08415 C54.3069476,31.2006621 54.0188093,30.348967 53.5564626,29.590775 C53.4802721,29.465425 53.3959184,29.334625 53.4612245,29.20655 L64.5251701,12.030875 Z M53.8258503,35.482225 L68.6666667,41.776975 C68.7482993,41.815125 68.8380952,41.85055 68.8734694,41.935025 C68.8876308,41.9858289 68.8876308,42.0395461 68.8734694,42.09035 C68.829932,42.30835 68.7918367,42.556325 68.7918367,42.807025 L68.7918367,43.22395 C68.7918367,43.3275 68.6857143,43.3711 68.5877551,43.411975 L68.5578231,43.422875 C66.2068027,44.4284 35.5510204,57.5193 35.5047619,57.5193 C35.4585034,57.5193 35.4095238,57.5193 35.3632653,57.472975 C35.2816327,57.391225 35.3632653,57.276775 35.4367347,57.173225 C35.4497237,57.1552638 35.4624237,57.1370948 35.4748299,57.118725 L47.6707483,38.207225 L47.692517,38.174525 C47.7632653,38.060075 47.844898,37.932 47.9755102,37.932 L48.0979592,37.951075 C48.3755102,37.989225 48.6204082,38.02465 48.8680272,38.02465 C50.7183673,38.02465 52.4326531,37.122675 53.4666667,35.580325 C53.4913026,35.5391384 53.5225623,35.5023094 53.5591837,35.471325 C53.6326531,35.416825 53.7414966,35.444075 53.8258503,35.482225 L53.8258503,35.482225 Z M36.829932,60.51135 L70.244898,46.240525 C70.244898,46.240525 70.2938776,46.240525 70.3401361,46.28685 C70.522449,46.469425 70.677551,46.59205 70.8272109,46.7065 L70.9006803,46.752825 C70.9687075,46.790975 71.0367347,46.834575 71.0421769,46.905425 C71.0421769,46.932675 71.0421769,46.949025 71.0367347,46.97355 L68.1741497,64.5825 L68.1632653,64.65335 C68.1442177,64.7896 68.1251701,64.944925 67.9972789,64.944925 C66.4478748,65.049656 65.0498818,65.9133139 64.2612245,67.253 L64.247619,67.2748 C64.2095238,67.337475 64.1741497,67.397425 64.1115646,67.430125 C64.0544218,67.457375 63.9809524,67.446475 63.9210884,67.43285 L37.2734694,61.92835 C37.2462585,61.9229 36.8598639,60.514075 36.829932,60.51135 L36.829932,60.51135 Z" id="Shape" fill="url(#radialGradient-1)"></path>
        </g>
    </g>
</svg>